<svg width="36" height="36" viewBox="0 0 36 36" fill="none" xmlns="http://www.w3.org/2000/svg">
    <rect width="36" height="36" rx="8" fill="#191B1E"/>
    <path d="M15 23V24C15 24.7956 15.3161 25.5587 15.8787 26.1213C16.4413 26.6839 17.2044 27 18 27C18.7956 27 19.5587 26.6839 20.1213 26.1213C20.6839 25.5587 21 24.7956 21 24V23M16 11C16 10.4696 16.2107 9.96086 16.5858 9.58579C16.9609 9.21071 17.4696 9 18 9C18.5304 9 19.0391 9.21071 19.4142 9.58579C19.7893 9.96086 20 10.4696 20 11C21.1484 11.543 22.1274 12.3883 22.8321 13.4453C23.5367 14.5023 23.9404 15.7311 24 17V20C24.0753 20.6217 24.2954 21.2171 24.6428 21.7381C24.9902 22.2592 25.4551 22.6914 26 23H10C10.5449 22.6914 11.0098 22.2592 11.3572 21.7381C11.7046 21.2171 11.9247 20.6217 12 20V17C12.0596 15.7311 12.4633 14.5023 13.1679 13.4453C13.8726 12.3883 14.8516 11.543 16 11Z" stroke="#9EA6BA" stroke-width="2" stroke-linecap="round" stroke-linejoin="round"/>
</svg>
