<svg width="24" height="24" viewBox="0 0 24 24" fill="none" xmlns="http://www.w3.org/2000/svg">
  <path
    fill-rule="evenodd"
    clip-rule="evenodd"
    d="M12 2C6.477 2 2 6.477 2 12C2 16.42 4.865 20.167 8.839 21.489C9.339 21.581 9.5 21.272 9.5 21.007C9.5 20.771 9.492 20.141 9.487 19.314C6.728 19.914 6.145 17.976 6.145 17.976C5.708 16.868 5.066 16.574 5.066 16.574C4.184 15.97 5.134 15.982 5.134 15.982C6.11 16.051 6.625 16.985 6.625 16.985C7.493 18.473 8.903 18.043 9.459 17.794C9.549 17.165 9.799 16.736 10.075 16.493C7.873 16.241 5.56 15.392 5.56 11.47C5.56 10.353 5.957 9.439 6.609 8.723C6.503 8.471 6.155 7.458 6.708 6.083C6.708 6.083 7.548 5.814 9.459 7.075C10.257 6.853 11.112 6.742 11.966 6.738C12.82 6.742 13.675 6.853 14.473 7.075C16.383 5.814 17.222 6.083 17.222 6.083C17.776 7.458 17.428 8.471 17.322 8.723C17.975 9.439 18.371 10.353 18.371 11.47C18.371 15.403 16.055 16.238 13.846 16.485C14.192 16.783 14.5 17.371 14.5 18.268C14.5 19.552 14.488 20.605 14.488 21.007C14.488 21.274 14.648 21.585 15.156 21.487C19.133 20.164 22 16.419 22 12C22 6.477 17.523 2 12 2Z"
    fill="currentColor"
  />
</svg>
