<svg width="24" height="24" viewBox="0 0 24 24" xmlns="http://www.w3.org/2000/svg">
  <path
    d="M23.49 12.272c0-.816-.073-1.6-.209-2.352H12v4.45h6.458a5.52 5.52 0 0 1-2.392 3.623v3.01h3.871c2.264-2.085 3.553-5.157 3.553-8.73Z"
    fill="#4285F4"
  />
  <path
    d="M12 24c3.24 0 5.953-1.075 7.937-2.907l-3.871-3.01c-1.074.72-2.448 1.146-4.066 1.146-3.128 0-5.776-2.112-6.718-4.95H1.28v3.114A11.996 11.996 0 0 0 12 24Z"
    fill="#34A853"
  />
  <path
    d="M5.282 14.279A7.2 7.2 0 0 1 4.91 12c0-.79.136-1.558.372-2.279V6.607H1.28A11.992 11.992 0 0 0 0 12c0 1.937.463 3.772 1.28 5.393l4.002-3.114Z"
    fill="#FBBC05"
  />
  <path
    d="M12 4.771c1.764 0 3.347.606 4.59 1.796l3.44-3.44C17.948 1.075 15.24 0 12 0A11.996 11.996 0 0 0 1.28 6.607l4.002 3.114C6.224 6.883 8.872 4.771 12 4.771Z"
    fill="#EA4335"
  />
</svg>
