<svg width="36" height="36" viewBox="0 0 36 36" fill="none" xmlns="http://www.w3.org/2000/svg">
<rect width="36" height="36" rx="8" fill="#2F323A"/>
<path d="M18 8.99994C18.132 8.99994 18.263 8.99994 18.393 8.99994C17.1084 10.1937 16.2826 11.7998 16.0593 13.5392C15.836 15.2785 16.2293 17.0412 17.1708 18.5207C18.1122 20.0002 19.5424 21.103 21.2126 21.6374C22.8829 22.1718 24.6876 22.1041 26.313 21.4459C25.6878 22.9504 24.6658 24.257 23.3562 25.2262C22.0466 26.1954 20.4985 26.791 18.8769 26.9493C17.2554 27.1077 15.6213 26.8229 14.1489 26.1253C12.6765 25.4278 11.4211 24.3436 10.5166 22.9885C9.61209 21.6334 9.09238 20.0582 9.01291 18.4309C8.93345 16.8036 9.29721 15.1852 10.0654 13.7485C10.8336 12.3117 11.9774 11.1104 13.3748 10.2727C14.7722 9.43499 16.3708 8.99234 18 8.99194V8.99994Z" stroke="#7F8596" stroke-width="2" stroke-linecap="round" stroke-linejoin="round"/>
</svg>
