<svg width="36" height="36" viewBox="0 0 36 36" fill="none" xmlns="http://www.w3.org/2000/svg">
<rect width="36" height="36" rx="8" fill="#F3F5FC"/>
<path d="M12.343 23.657L10.929 25.071M12.343 12.343L10.929 10.929M23.657 12.343L25.071 10.929M23.657 23.657L25.071 25.071M10 18H8M18 10V8M26 18H28M18 26V28M20.828 20.828C21.2101 20.459 21.5148 20.0177 21.7244 19.5296C21.9341 19.0416 22.0444 18.5167 22.049 17.9856C22.0537 17.4545 21.9525 16.9278 21.7513 16.4362C21.5502 15.9446 21.2532 15.498 20.8776 15.1224C20.502 14.7469 20.0554 14.4499 19.5639 14.2487C19.0723 14.0476 18.5456 13.9464 18.0144 13.951C17.4833 13.9556 16.9584 14.066 16.4704 14.2756C15.9824 14.4853 15.541 14.79 15.172 15.172C14.4434 15.9264 14.0402 16.9368 14.0493 17.9856C14.0585 19.0344 14.4791 20.0377 15.2208 20.7793C15.9624 21.5209 16.9656 21.9416 18.0144 21.9507C19.0632 21.9598 20.0736 21.5567 20.828 20.828Z" stroke="#939AAE" stroke-width="2" stroke-linecap="round" stroke-linejoin="round"/>
</svg>
