<svg width="83" height="105" viewBox="0 0 83 105" fill="none" xmlns="http://www.w3.org/2000/svg">
    <path d="M25 14H14C11.0826 14 8.28472 15.1589 6.22182 17.2218C4.15892 19.2847 3 22.0826 3 25V91C3 93.9174 4.15892 96.7153 6.22182 98.7782C8.28472 100.841 11.0826 102 14 102H69C71.9174 102 74.7153 100.841 76.7782 98.7782C78.8411 96.7153 80 93.9174 80 91V25C80 22.0826 78.8411 19.2847 76.7782 17.2218C74.7153 15.1589 71.9174 14 69 14H58" fill="#F8F9FB"/>
    <path d="M25 14C25 11.0826 26.1589 8.28472 28.2218 6.22182C30.2847 4.15892 33.0826 3 36 3H47C49.9174 3 52.7153 4.15892 54.7782 6.22182C56.8411 8.28472 58 11.0826 58 14C58 16.9174 56.8411 19.7153 54.7782 21.7782C52.7153 23.8411 49.9174 25 47 25H36C33.0826 25 30.2847 23.8411 28.2218 21.7782C26.1589 19.7153 25 16.9174 25 14Z" fill="#F8F9FB"/>
    <path d="M25 52.5H58Z" fill="#F8F9FB"/>
    <path d="M25 74.5H58Z" fill="#F8F9FB"/>
    <path d="M25 14H14C11.0826 14 8.28472 15.1589 6.22182 17.2218C4.15892 19.2847 3 22.0826 3 25V91C3 93.9174 4.15892 96.7153 6.22182 98.7782C8.28472 100.841 11.0826 102 14 102H69C71.9174 102 74.7153 100.841 76.7782 98.7782C78.8411 96.7153 80 93.9174 80 91V25C80 22.0826 78.8411 19.2847 76.7782 17.2218C74.7153 15.1589 71.9174 14 69 14H58M25 14C25 11.0826 26.1589 8.28472 28.2218 6.22182C30.2847 4.15892 33.0826 3 36 3H47C49.9174 3 52.7153 4.15892 54.7782 6.22182C56.8411 8.28472 58 11.0826 58 14M25 14C25 16.9174 26.1589 19.7153 28.2218 21.7782C30.2847 23.8411 33.0826 25 36 25H47C49.9174 25 52.7153 23.8411 54.7782 21.7782C56.8411 19.7153 58 16.9174 58 14M25 52.5H58M25 74.5H58" stroke="#D4DAE7" stroke-width="6" stroke-linecap="round" stroke-linejoin="round"/>
</svg>
